# xmcd
# Copyright (C) 1995-1998 Ti Kan
#
# Track frame offsets:
#       150
#       9863
#       26986
#
# Disc length: 521 seconds
#
# Revision: 2
# Processed by: cddbd v1.5.2PL0 Copyright (c) Steve Scherf et al.
# Submitted via: CD-Import v1.0
#
DISCID=18020703
DTITLE=Lill-Babs - 
DYEAR=63
DGENRE=
TTITLE0=C'est Ma Fete
TTITLE1=It's My Party
TTITLE2=Leva Livet
EXTD=
EXTT0=
EXTT1=
EXTT2=
PLAYORDER=
